<?xml version="1.0" encoding="UTF-8"?>
<svg id="Layer_1" data-name="Layer 1" xmlns="http://www.w3.org/2000/svg" viewBox="0 0 320.58 495.15">
  <defs>
    <style>
      .cls-1 {
        fill: #4d4c4c;
        stroke-width: 0px;
      opacity:0.2;
      }
    </style>
  </defs>
  <path class="cls-1" d="M107.02,473.68c-6.22,5.4-13,6.44-20.32,3.25-1.38-.61-2.37-.33-3.53.33-5.29,2.92-11.62,1.27-14.05-3.69-2.64-5.34-.39-12.06,4.85-14.6,3.58-1.76,9.2-.88,11.9,2.37,1.93,2.37,3.47,1.76,5.29.33,7.38-5.84,11.79-13.55,13.16-22.8.77-5.23-.55-10.24-4.63-14.1-5.07-4.79-15.64-4.9-20.87-.22-.39.39-.83.72-.94,1.32-1.43,8.81-6.94,15.42-12.06,22.25-6.06,7.99-12.83,15.31-19.5,22.75-4.96,5.51-10.91,9.58-18.51,10.41-8.7.99-15.81-1.98-20.6-9.36-4.46-6.83-4.02-14.05-.28-21.15,4.46-8.43,10.91-15.42,16.8-22.75,4.52-5.56,8.7-11.4,13.99-16.25,8.21-7.49,17.57-10.47,28.37-6.11,5.12,2.09,8.65,5.78,10.52,11.02.33.94.66,1.87,1.05,2.97,3.41-1.38,6.72-2.81,10.3-3.03,12.39-.83,21.92,8.92,20.82,21.37-.94,10.58-6,19.11-13.6,26.22-1.49,1.38-3.3,2.31-5.23,3.03-1.1.39-1.54.99-1.71,2.2-.39,3.53.44,4.57,4.24,4.85,8.37.66,14.93-4.35,17.35-13.66.99-3.8,1.6-7.71,2.2-11.57.88-5.56,2.64-10.85,5.12-15.92.5-1.05,1.32-2.04.44-3.3-5.45-8.48-4.46-17.46-2.04-26.55,2.04-7.6,5.78-14.43,9.97-21.04.55-.83,1.05-1.71,1.65-2.59-3.8-3.53-5.01-7.77-3.64-12.56,1.32-4.57,4.96-6.88,10.08-6.83,4.52.11,8.59,3.03,9.53,7.27.5,2.15,1.54,2.86,3.64,3.36,4.85,1.1,8.87,3.41,9.97,8.98.39,1.93-.11,3.64-.61,5.4-.33,1.16-1.16,1.93-2.48,1.54s-1.82-1.38-1.54-2.81c.94-5.07-1.05-7.93-6.17-9.31-1.54-.39-2.59-.28-3.41,1.21-1.93,3.41-4.85,5.18-8.81,5.07-1.27-.06-2.09.55-2.81,1.49-7.27,10.19-12.61,21.1-12.89,33.87-.11,3.64,1.1,7.05,3.08,10.13,1.71,2.64,4.02,3.47,7.11,2.86,1.71-.33,3.36-.88,4.9-1.76,3.03-1.71,4.68-3.97,4.57-7.77-.17-6.39.17-12.83.33-19.28.17-6.11,3.47-9.53,9.53-9.31,5.73.22,11.29-.72,16.91-1.16,1.27-.11,2.59.06,3.86.22,3.69.44,4.35.17,4.35-3.64.06-8.37,1.87-6.33,7.77-5.84,1.1.11,2.15.33,3.25.61,3.36.77,4.24,1.93,4.3,5.29.06,3.53.17,3.53,3.8,3.69,7.33.33,14.65.61,21.92,1.16,4.74.33,7.33,2.92,7.27,7.66-.17,12.67-.61,25.28-.88,37.95-.11,6.61-.11,13.22-.17,19.83,0,8.43-.06,16.85-.5,25.28-.39,6.72-2.92,9.31-9.53,9.31-14.76,0-29.58-.11-44.34-.11h-18.67c-7.22,0-10.13-2.7-10.24-9.86-.06-5.89.06-11.73.17-17.63.11-7.44.11-14.87.39-22.31.17-3.75.44-7.44.22-11.46-2.86,1.32-5.29,2.81-8.15,3.19-1.6.22-3.08.44-4.63,0-1.76-.55-2.64.22-3.47,1.76-3.19,5.84-4.35,12.17-5.45,18.62-1.21,7.44-2.86,14.49-8.7,19.88M157.53,405.32h-2.2c-4.3,0-4.24,0-4.3,4.35-.06,7.71-.06,15.42-.22,23.13-.22,14.27-.55,28.53-.83,42.85-.06,1.98.83,2.75,2.81,2.75,5.56.06,11.18.33,16.74.33,11.18.11,22.36.06,33.54.11,3.08,0,3.47-.39,3.47-3.41.11-10.74.17-21.43.39-32.17.22-11.57.61-23.08.99-34.64.06-2.09-.55-2.97-2.75-2.97-1.93,0-3.8.11-5.73.11-13.77-.06-27.59.17-41.92-.44M142.77,398.05c-.17.99-.44,1.98-.55,2.97-1.1,11.24-.22,22.53-.94,33.82-.5,7.93-.17,15.97-.28,23.96s-.33,15.97-.39,23.9c-.06,3.25,1.05,4.24,4.19,4.57,2.92.33,5.84.39,8.81.39h57.01c3.58,0,4.24-.66,4.57-4.3.06-.66.17-1.27.17-1.93.17-14.6.28-29.14.44-43.73.06-2.64.11-5.29.22-7.99.39-10.08.55-20.16.77-30.24.06-1.93-.88-3.41-3.03-3.58-2.75-.22-5.51-.28-8.21-.5-2.2-.22-2.92.77-2.86,2.86,0,1.98.5,3.25,2.75,2.97.66-.06,1.27,0,1.93,0,3.47.11,4.79,1.49,4.85,4.9.11,3.14-.39,6.22-.5,9.31-.44,20.38-.77,40.7-1.16,61.08-.11,5.18-1.16,6.44-6.33,6.39-17.63-.11-35.25.11-52.82-.55-4.3-.17-5.12-.99-5.12-5.29,0-15.59-.06-31.17.5-46.82.28-8.04,0-16.14.11-24.23.06-3.75,1.32-4.9,5.01-4.96,1.1,0,2.2-.06,3.3,0,2.42.11,1.87-1.76,2.04-3.08.17-1.43-.39-2.2-1.98-2.26-2.86,0-5.67,0-8.54-.33-1.6-.11-2.97.66-3.97,2.64M73.53,424.11c-.39-4.74-1.71-8.98-5.56-12.12-6.44-5.23-16.25-5.23-23.79.22-6.39,4.63-10.8,11.13-16.03,17.24,9.36,8.04,18.51,15.86,28.09,23.41,2.75-2.37,4.57-5.23,6.55-7.93,4.52-6.22,9.8-12.12,10.74-20.82M38.61,444.43c-3.8-3.3-7.71-6.55-11.46-9.91-1.38-1.21-2.2-1.16-3.36.22-3.41,4.19-6.94,8.32-10.08,12.72-2.09,2.92-3.75,6.11-4.68,9.58-2.48,9.25,3.25,18.34,12.67,19.88,5.51.88,10.58-.5,15.15-3.69,6.33-4.52,10.85-10.8,16.36-16.63-4.9-4.08-9.58-7.99-14.6-12.17M197.85,395.03c-2.92-.11-5.84-.17-8.76-.28-4.63-.17-5.34-.94-5.29-5.62,0-3.3-.72-3.86-4.19-4.24-3.08-.33-2.59,1.71-2.75,3.47-.06.72-.28,1.43-.39,2.15-.55,3.19-1.54,4.19-4.68,4.19-2.37,0-4.74-.22-7.11-.39-1.93-.17-3.36,0-3.25,2.64.17,4.13.06,4.24,3.14,4.24,9.36.06,18.67.06,28.04.11q5.73,0,5.73-5.73c-.11-.11-.17-.17-.5-.55M134.67,364.79c-3.91-.61-6,.44-7,3.47-.99,2.97.28,6.5,2.81,7.88,3.14,1.71,6.94.55,8.37-2.48,1.76-3.86.39-7.05-4.19-8.87M72.54,470.48c.77,2.7,2.53,4.3,5.34,4.3s5.56-2.2,6.11-4.63c.66-2.75-.44-5.51-2.81-6.88-1.98-1.16-4.13-1.1-6,.11-2.37,1.54-3.14,3.91-2.64,7.11Z"/>
  <path class="cls-1" d="M39.99,204.45c-1.6,10.13-5.29,19.28-10.41,27.87-2.75,4.57-5.51,9.2-5.73,14.71-.5,10.74,7.71,18.95,18.51,19.61,10.8.66,18.67-4.41,23.85-13.71,4.68-8.32,5.84-17.68,7.27-26.88.17-1.21-.72-1.76-1.54-2.37-5.4-4.13-7.33-10.24-5.4-16.85,1.54-5.23,6.55-9.03,12.83-9.64,7.99-.77,14.87,5.51,14.87,13.66,0,9.36-4.85,14.71-14.21,15.42-1.6.11-2.15.72-2.37,2.31-1.38,8.81-2.97,17.52-7.05,25.56-6.17,12.17-19.17,18.95-31.56,16.52-18.34-3.58-24.07-20.65-16.47-35.2,3.97-7.55,8.65-14.71,10.85-23.08.99-3.75,1.82-7.44,2.37-11.35-1.1-.83-2.42-.77-3.58-1.21-10.63-3.69-17.9-10.8-21.65-21.48-.33-.88-.61-1.93-.17-2.7,1.27-2.15.33-4.02-.22-6.06-2.86-9.75-4.46-19.72-3.86-29.85.44-7.82,3.75-15.42,14.49-16.91,1.21-.17,2.15-.88,3.14-1.6,3.08-2.37,7.82-2.15,10.02.33,2.37,2.64,1.82,6.17-1.16,8.04-2.75,1.71-7.49,1.43-9.75-.88-1.49-1.54-2.86-1.54-4.68-.88-6.06,2.31-7.49,7.55-7.88,13.05-.61,10.02,1.82,19.66,4.35,29.19.11.39.39.99.72,1.1,2.92.72,3.41,3.3,4.41,5.51,3.08,6.83,7.44,12.5,15.15,14.54,6.83,1.82,12.39-.83,17.29-5.34,2.92-2.7,5.01-6.11,6.88-9.58.88-1.65,1.76-3.25,3.75-3.8,1.05-.28,1.21-1.32,1.54-2.15,2.97-8.81,4.96-17.79,6-27.04.33-3.03-.06-6.06-1.16-8.92-.99-2.7-2.97-4.35-5.56-5.4-.99-.44-1.76-.39-2.75.39-3.03,2.26-7.05,2.15-9.97-.17-1.65-1.32-2.75-3.08-2.31-5.29.5-2.31,1.93-3.86,4.41-4.35,3.08-.66,5.73.17,7.71,2.42,1.1,1.21,2.26,2.04,3.75,2.59,6.72,2.53,10.02,7.27,10.13,14.49.22,10.96-2.59,21.43-5.78,31.78-.5,1.6-.99,3.03-.44,4.79.44,1.54-.28,3.08-.88,4.52-4.46,10.96-12.72,17.46-24.07,20.16-2.15.5-3.64,1.32-3.69,4.13M75.24,220.7c1.98,1.32,4.24,1.1,6.39.94,5.51-.44,9.42-6.11,8.43-12.06-.88-4.96-6.72-8.92-11.57-7.82-3.91.88-6.83,2.97-7.66,7-.99,4.63-.17,8.81,4.41,11.95Z"/>
  <path class="cls-1" d="M127.18,189.75c2.86-.22,3.64-1.65,3.75-4.24.28-4.68.44-8.92-3.58-12.67-2.75-2.59-4.02-6.5-5.01-10.3-.44-1.71-1.32-2.75-3.08-3.36-6-2.15-8.15-11.4-3.58-15.86,1.87-1.82,2.04-3.64,1.93-5.89-.22-4.85-.33-9.75.94-14.49,3.08-12.01,10.85-19.17,23.08-21.04,10.74-1.65,20.49.77,28.2,8.92,4.46,4.68,5.78,10.69,6.61,16.85.55,3.86.55,7.66.5,11.51,0,1.27.11,2.31,1.43,2.97,5.34,2.7,5.12,15.42-1.93,18.01-1.71.61-2.37,1.65-2.86,3.25-1.71,5.62-4.13,10.8-8.98,14.49-.77.55-.88,1.32-.94,2.2-.55,8.21-.06,8.92,7.71,11.4,7.38,2.37,14.43,5.45,19.99,11.13,6.28,6.39,8.48,14.65,9.69,23.19.66,4.63,1.21,9.25,1.21,13.93,0,1.43.06,2.97-1.93,3.03s-2.2-1.38-2.37-2.97c-.77-7-.88-14.05-2.64-20.93-2.81-10.91-10.08-17.35-20.16-21.26-.11-.06-.17-.06-.28-.11-4.9-2.7-8.76-2.53-13.49,1.65-8.98,7.93-22.36,6.28-30.95-2.86-1.76-1.87-3.25-2.2-5.51-1.38-3.03,1.1-6.06,2.09-8.98,3.41-10.02,4.57-14.21,12.94-15.64,23.24-.83,5.89-1.27,11.84-1.65,17.79-.11,1.54-.55,3.14-2.48,3.03-2.04-.17-1.82-1.82-1.76-3.36.22-7.05,1.21-14.05,2.31-20.99,2.09-13.33,10.08-21.59,22.58-25.94,2.53-.83,5.12-1.54,7.88-2.37M169.32,133.18c-5.89-1.98-10.35-6.06-14.43-10.8-2.97,2.86-5.89,5.34-9.36,7.11-3.41,1.76-6.94,3.69-10.74,4.08-5.51.55-8.87,2.75-9.47,8.59-.22,1.98-1.65,2.92-3.8,2.59-1.82-.28-2.97.77-3.69,2.26-1.71,3.47.39,7.93,4.24,8.48,2.37.33,3.25,1.49,3.8,3.58.77,3.03,1.87,5.95,3.36,8.7,5.01,9.09,13.22,11.84,22.86,10.74,8.48-.94,13.88-5.89,16.47-14.1,2.97-9.31,3.86-18.78,3.64-28.48,0-1.82-.99-2.31-2.86-2.75M163.37,124.7c2.31,1.93,4.63,3.8,8.26,4.41-.11-7-2.04-12.83-7.22-17.24-8.21-7-20.6-8.37-30.4-2.86-11.02,6.11-12.72,16.52-12.06,28.48.39-.99.55-1.38.66-1.82.61-3.3,2.48-4.63,6-5.12,9.42-1.27,17.85-4.79,24.07-12.45,1.87-2.31,3.53-2.2,5.34.22,1.54,2.15,3.08,4.35,5.34,6.39M160.61,191.12c-1.71-3.08-.77-6.61-1.43-10.13-4.08,1.54-7.93,1.93-11.9,1.82-3.91-.11-7.66-1.1-11.51-2.42-.39,4.19.06,8.15-2.04,11.62-.5.77.17,1.38.66,1.93,6.66,6.61,18.29,8.43,26.22.55,1.05-1.05,1.32-1.93,0-3.36M176.2,148.93c-.22,2.15-.5,4.3-.77,6.55,2.64-1.87,3.14-6.17.99-8.37-.06.55-.11.99-.22,1.82Z"/>
  <path class="cls-1" d="M277.22,379.49c-.33,1.54-.61,2.92-.99,4.24-.39,1.54-.33,2.81.99,3.97,1.65,1.49,1.43,3.47.94,5.4-2.31,9.31-4.74,18.62-7,27.98-1.43,5.89-2.75,11.79-4.24,17.63-1.16,4.41-4.02,7.49-7.38,9.97-3.64,2.7-5.45,6.28-6.61,10.47-.61,2.2-1.27,4.41-2.15,6.5-1.43,3.53-4.68,5.34-7.55,4.46-3.47-1.1-5.29-4.57-4.3-8.37,1.05-4.19,2.15-8.32,3.36-12.5.28-1.05.22-1.98-.28-2.92-3.41-6.28-3.64-12.78-1.87-19.66,2.97-11.73,5.73-23.46,8.21-35.31.83-4.02,1.98-7.27,5.78-9.42,1.71-.94,1.32-3.25,1.87-4.96.77-2.48,1.71-4.96-1.76-6.28-.72-.28-.99-.99-.66-1.87,1.21-3.36,1.54-6.94,2.31-10.41.94-3.97,2.53-5.23,6.44-4.35,2.64.61,3.64-.17,4.02-2.75.44-3.08,1.16-6.11,1.87-9.14.83-3.3,2.92-4.79,6.22-4.57,3.03.17,6,.88,8.7,2.31,2.75,1.43,3.58,3.25,2.92,6.33-.88,4.13-1.82,8.21-2.7,12.23,4.13,2.75,4.19,2.97,3.08,7.71-.61,2.7-1.27,5.34-1.93,7.99-.5,2.2-1.82,3.36-4.13,3.08-1.65-.22-2.86.11-3.19,2.26M248.58,408.9c-1.76,7.66-3.69,15.31-5.18,23.02-.77,3.97-.11,7.88,2.2,11.57,2.92-2.09,4.57-4.57,5.34-7.77,2.2-9.53,4.41-19.06,6.66-28.59.88-3.8,1.71-4.3,5.56-3.69,1.82.28,3.58.66,5.4.99,1.65.33,2.53-.28,2.92-1.98.72-3.14,1.6-6.22,2.42-9.31.55-2.15,0-3.47-2.42-3.91-4.3-.83-8.59-1.87-12.83-2.92-3.41-.83-4.9.17-5.67,3.64-1.43,6.17-2.86,12.34-4.41,18.95M259.59,416.62c-1.32,5.89-2.81,11.73-3.97,17.68-.99,5.18-3.14,9.53-7.33,12.78-.94.72-1.65,1.65-1.98,2.92-1.1,4.24-2.2,8.48-3.47,12.72-.5,1.6.06,2.59,1.32,3.14,1.6.72,2.37-.55,2.86-1.76.5-1.16.88-2.42,1.21-3.64,1.65-6.33,4.13-12.06,9.91-15.92,3.03-1.98,4.52-5.18,5.34-8.7,1.93-8.1,3.8-16.19,5.78-24.29.5-1.87.06-2.81-1.87-2.97-.99-.11-1.98-.33-2.97-.5-1.98-.33-3.08.5-3.41,2.53-.39,1.82-.88,3.69-1.43,6M274.02,360.6c-4.46-.88-8.87-2.2-13.55-2.42-1.1,2.42-1.21,5.01-1.87,7.49-.5,1.87.11,2.92,2.09,3.3,4.41.94,8.76,1.98,13.11,2.97,7.11,1.6,7.99.83,8.59-6.55.11-1.71-.22-2.81-2.09-3.19-1.93-.39-3.86-.99-6.28-1.6M271.16,347.77c-.5,2.42-.99,4.79-1.49,7.44,2.81.61,5.45,1.21,8.1,1.82,1.32.28,1.76-.5,2.04-1.6.72-3.19,1.49-6.39,2.26-9.58.22-.94,0-1.65-.77-2.15-2.37-1.65-5.12-2.26-7.82-1.54-2.04.55-1.49,2.86-1.98,4.41-.06.22-.11.5-.33,1.21M270.55,384.62c1.38-.77,3.47-6.66,2.81-7.93-.28-.55-.77-.77-1.32-.88-3.14-.72-6.28-1.38-9.36-2.09-.99-.22-1.65,0-1.87.99-.5,2.37-1.6,4.68-1.32,7.33,3.58.88,7.11,1.71,11.07,2.59Z"/>
  <path class="cls-1" d="M151.09,258.21c15.26,2.2,20.6,16.14,18.95,27.98-1.49,10.58-7.44,18.12-15.04,24.84-7.27,6.44-14.82,12.61-22.58,18.45-2.92,2.2-3.53,2.09-6.39-.28-8.81-7.05-17.29-14.49-25.34-22.47-1.71-1.65-3.3-3.47-4.63-5.45-1.21-1.82-2.59-2.53-4.79-2.48-3.03.11-6.06-.17-9.09-.33-1.49-.06-2.86-.39-2.75-2.26.11-1.65,1.32-1.98,2.75-1.93,2.97.06,6,0,9.31,0-1.05-3.75-2.04-6.94-2.2-10.35-.39-8.87,2.09-16.52,9.42-22.03,9.03-6.77,22.03-5.29,29.14,3.53,1.65,2.04,2.48,1.87,4.13.06,5.12-5.45,11.46-7.82,19.11-7.27M133.68,270.38c-.55.77-1.05,1.49-1.6,2.26-1.6,2.09-3.03,2.04-4.52-.11-.39-.55-.66-1.1-.99-1.65-5.95-9.25-17.24-11.57-25.5-5.12-8.65,6.77-8.92,18.51-4.74,27.32.66,1.38,1.82,1.32,3.03,1.32,3.58-.06,7.16-.17,10.74-.11,1.6,0,2.53-.55,3.19-1.98,1.65-3.58,3.53-7.05,5.23-10.63.55-1.16.83-2.59,2.53-2.48s2.15,1.49,2.59,2.81c1.65,5.23,3.25,10.52,4.96,15.75.44,1.38.55,2.97,1.87,4.24,2.64-5.73,5.18-11.18,7.77-16.69.55-1.21.94-2.7,2.75-2.59,1.71.11,2.09,1.6,2.59,2.86.55,1.38,1.27,2.7,1.65,4.08.99,3.86,2.92,6.17,7.33,5.12.33-.06.72,0,1.1.06,1.21.22,2.15.88,2.2,2.09.06,1.16-.83,1.76-1.87,2.04-2.26.66-4.57.5-6.83.55-1.93.06-3.03-.83-3.8-2.59-.83-1.87-1.16-4.02-2.81-5.95-.55,1.1-.99,1.98-1.43,2.92-2.26,4.85-4.46,9.64-6.72,14.49-.55,1.21-1.1,2.48-2.64,2.42-1.6,0-1.98-1.38-2.37-2.64-1.27-4.02-2.48-8.04-3.8-12.06-.83-2.59-1.82-5.18-2.97-8.26-1.43,2.92-2.7,5.18-3.69,7.55-.94,2.26-2.37,3.14-4.85,3.08-3.86-.06-7.77.39-12.01.61.55.77.83,1.21,1.16,1.6,8.15,8.98,17.68,16.52,26.88,24.4,1.16.99,1.98.5,2.86-.22,2.31-1.82,4.68-3.58,6.94-5.45,7-5.89,14.71-11.13,20.54-18.23,6.83-8.37,9.91-17.74,5.67-28.37-1.76-4.52-5.01-7.6-9.69-9.14-8.04-2.59-14.49-.61-20.76,6.72Z"/>
  <path class="cls-1" d="M102.84,354.76c-.17,5.84-.22,11.46-.33,17.02-.17,10.08-4.57,14.43-14.54,14.38-18.34-.06-36.68-.17-55.02-.28-3.75,0-7.49-.22-11.29-.44-6.06-.39-9.86-4.08-10.08-10.58-.33-10.08-.28-20.16.11-30.29.17-4.02.22-8.04.22-12.12.11-8.76,4.08-12.72,12.89-12.78,3.47,0,7-.06,10.47,0,1.87.06,2.75-.61,2.59-2.53-.06-.72,0-1.49.06-2.2.61-7.6,4.02-10.85,11.68-10.85h18.18c7.6.06,11.57,4.02,11.73,11.51.11,4.96.11,4.9,5.07,5.01,2.59.06,5.12,0,7.71.22,6.77.55,10.35,3.86,10.74,10.52.33,7.77.33,15.48-.17,23.41M22.97,381.37c5.95.17,11.9.17,17.9.33,11.9.39,23.85,0,35.8.28,4.46.11,8.98.72,13.44.06,5.45-.77,7.33-2.64,7.93-8.1.72-7.05,0-14.16.61-21.21.55-6.88.33-13.77.22-20.65-.06-4.57-2.15-6.61-6.72-7.16-2.81-.33-5.67-.55-8.48-.61-19.44-.22-38.89-.44-58.33-.61-6.94-.06-9.03,2.15-9.14,8.98-.11,7.82-.11,15.59-.44,23.41-.28,6.33-.55,12.67.22,18.95.44,4.46,2.09,5.89,7,6.33M48.03,307.95c-4.57,1.21-7.38,6.22-5.89,10.69.17.61.5.94,1.1,1.05,1.93.33,2.92-.22,2.86-2.42-.06-2.53.5-5.12,3.64-5.23,5.95-.22,11.9-.11,17.85.06,2.42.06,3.91,1.49,3.64,4.19-.06.66,0,1.27,0,1.93-.06,1.32.44,2.04,1.87,2.04s2.2-.61,2.2-2.09c0-1.65,0-3.3-.39-4.9-.77-3.14-2.31-4.63-5.51-4.74-7-.33-13.99-.44-21.37-.55M50.68,316.21c-.5,1.49-1.21,3.3,1.32,3.47,4.3.28,8.59.33,12.89.44,1.27.06,2.15-.33,2.26-1.76.11-1.38-.33-2.26-1.87-2.42-4.79-.5-9.53-.61-14.6.28Z"/>
  <path class="cls-1" d="M261.13,308.17c-8.04-5.01-13.66-11.68-15.31-21.04-1.1-6.22-.22-12.28,2.97-17.79,5.62-9.8,13.38-16.69,25.23-17.63,2.48-.22,4.96.11,7.33.77,7.66,2.04,14.87,5.4,20.05,11.35,7.11,8.04,8.54,17.63,4.52,27.76-3.08,7.77-8.1,13.93-15.59,17.85-9.8,5.12-19.55,4.41-29.19-1.27M291.32,291.97c2.64-3.53,4.35-7.38,5.12-11.73,1.1-6.11-1.71-14.27-6.55-17.46-.72.83-1.43,1.76-2.2,2.64-7.55,7.93-15.04,15.81-22.58,23.68-2.37,2.48-4.68,4.9-7.11,7.33-1.49,1.49-1.21,2.59.44,3.75,2.15,1.49,4.52,2.42,7.05,2.86,10.85,1.93,19.17-2.2,25.83-11.07M250.89,289.44c.77,1.71,1.1,3.64,2.86,4.85,11.46-11.18,22.31-22.75,33.1-34.48-6.17-5.12-16.63-4.85-24.29.28-10.47,7.05-15.04,18.34-11.68,29.36M283.33,307.67c15.09-4.9,26.11-23.57,17.02-36.63,1.76,9.42-.72,17.52-6.44,24.79s-13.11,11.35-22.31,12.17c3.8,1.05,7.55.88,11.73-.33Z"/>
  <path class="cls-1" d="M54.2,5.51c8.37,6.88,11.18,15.86,11.07,26.22-.06,7.6-2.86,14.38-7.93,19.39-16.03,15.86-36.52,11.4-45.99-3.64C2.04,32.72,7.94,10.35,26.77,2.31c8.32-3.53,16.41-2.86,24.4.94,1.05.55,1.93,1.43,3.03,2.26M17.9,14.15c-7.38,8.81-9.03,21.87-3.19,27.87,12.61-10.35,25.28-20.71,37.95-31.01-2.81-3.47-6.94-5.56-10.85-6.11-9.58-1.43-17.24,2.15-23.9,9.25M44.07,23.85c-8.81,7.44-18.12,14.21-26.82,21.92,10.24,7.16,23.9,5.78,33.49-3.47,7.6-7.27,10.13-21.15,5.01-27.76-4.08,2.64-7.55,6.11-11.68,9.31M59.05,40.15c-.06-.17-.11-.28-.17-.44-.22.17-.44.33-.55.55-8.48,10.69-19.28,15.97-33.16,13.94,13.05,6.44,28.37-.83,33.87-14.05Z"/>
  <path class="cls-1" d="M227.7,328.93c2.7,5.84,5.29,11.51,7.88,17.18.39.94.72,1.87.99,2.86,1.82,6.83-1.21,11.35-8.32,11.62-7.49.28-15.04.06-22.58-.11-6.11-.17-12.28-.55-18.4-.83-5.67-.28-9.25-2.75-10.41-7.27-.61-2.42.11-4.63,1.16-6.61,2.7-5.4,5.67-10.69,8.48-16.08,3.41-6.5,6.72-13.05,10.13-19.55,1.1-2.09,1.65-4.19,1.54-6.55-.17-2.48-.11-4.96,0-7.44.11-2.64.22-4.96-2.86-6.33-1.98-.88-1.82-3.25-1.54-5.18.28-2.04,1.54-3.3,3.41-3.91,1.49-.5,3.03-.66,4.63-.66,4.79.06,9.53,0,14.32.06,1.38,0,2.75.22,4.08.55,2.31.66,3.8,2.26,4.08,4.68s-.83,4.46-2.97,5.4c-2.26.94-2.15,2.53-2.53,4.52-2.81,12.72,4.13,22.75,8.92,33.65M223.29,329.54c-.55-.61-1.27-.72-1.98-.72-9.25-.06-18.51-.11-27.81-.17-.94,0-1.87.17-2.37,1.1-3.19,6.22-7,12.06-9.58,18.56-1.43,3.53,0,5.95,3.8,6.55,5.45.88,10.96.99,16.41,1.05,8.98.06,17.96.72,26.93.11,3.41-.22,4.68-2.15,3.8-5.45-.28-1.05-.61-2.15-1.05-3.14-2.59-5.84-5.29-11.68-8.15-17.9M202.64,292.58c-.33,5.45,1.16,11.13-.88,16.36-1.98,5.01-4.74,9.75-7.49,15.2,9.2-.33,17.57.72,26.22.28-.39-2.48-1.32-4.3-2.31-6-3.64-6.28-4.85-12.94-4.08-20.1.22-1.93.44-3.86.39-5.73-.11-2.7.17-4.96,3.58-5.29.72-.06,1.49-.55,1.38-1.49-.11-.88-.83-1.16-1.6-1.16-6.06-.17-12.12-.33-18.12-.44-.77,0-1.49.39-1.65,1.21-.22.83.44,1.27,1.05,1.32,3.53.28,3.64,2.7,3.53,5.84Z"/>
  <path class="cls-1" d="M181.43,89.83c-6.61,4.79-12.78,4.52-19.77.44-9.03-5.34-17.68-10.85-22.91-20.38-4.63-8.43-7-17.52-7.71-27.04-.55-7.44-.33-14.87-.11-22.31.06-2.48,1.05-3.69,3.64-4.24,12.56-2.59,24.46-7.16,35.58-13.55,2.26-1.27,4.35-1.43,6.33.28,8.48,7.27,18.56,10.96,29.36,13,.99.17,1.98.44,2.97.61,1.93.33,2.75,1.43,2.86,3.41.44,7.99,0,15.92-1.16,23.79-1.05,6.72-2.75,13.27-5.01,19.66-4.3,12.17-12.78,20.43-24.07,26.33M162.87,85.48c2.04,1.1,4.08,2.15,6.06,3.25,1.27.72,2.59.99,3.97.44,10.58-4.41,19.94-10.41,25.34-20.93,7.33-14.21,9.53-29.52,9.2-45.33-.06-1.82-.94-2.42-2.7-2.75-10.58-1.87-20.6-5.29-29.08-12.17-1.71-1.43-3.19-1.54-5.18-.44-10.41,5.56-21.32,9.8-32.72,12.72-1.6.39-2.15,1.27-2.26,2.86-.61,6.77-.44,13.55.06,20.32.55,7.22,2.31,14.1,5.34,20.65,4.46,9.86,12.28,16.36,21.98,21.37Z"/>
  <path class="cls-1" d="M275.67,74.46c-1.6.17-2.37-.66-3.14-1.65-3.75-4.79-7.49-9.53-11.24-14.27-.5-.61-.88-1.43-2.09-1.71-3.36,4.24-6.88,8.59-10.3,13-4.79,6.11-6,6.06-10.3-.22-1.32-1.87-2.59-3.8-3.86-5.67-1.49-2.26-1.43-4.35.66-6.39,4.3-4.24,8.15-8.92,12.06-13.55,1.27-1.49,1.38-2.64.28-4.35-6.33-9.64-6.06-19.22.77-28.31,6.44-8.65,18.23-8.04,23.96,1.05,5.73,9.09,4.74,17.96-.83,26.6-1.49,2.37-1.54,3.8.44,5.84,3.86,4.02,7.44,8.37,11.07,12.61,2.97,3.47,2.97,4.41.33,8.21-1.38,1.98-2.7,3.97-4.13,5.84-.94,1.16-1.87,2.53-3.69,2.97M238.44,61.58c1.71,2.59,3.41,5.12,5.62,8.48.5-.99.72-1.54,1.05-1.98,7.11-8.87,13.88-18.01,20.43-27.32,2.53-3.58,4.96-7.33,6-11.68.77-3.3.77-6.55-.88-9.86-1.27,2.2-2.26,4.13-3.47,5.95-5.62,8.15-11.9,15.86-18.12,23.52-3.58,4.19-7.55,8.04-10.63,12.89M270.61,63.72c1.6,1.65,2.53,4.02,4.79,5.23,1.76-1.65,2.75-3.75,4.24-5.45,1.27-1.54.94-2.7-.28-4.08-3.47-3.86-6.88-7.82-10.35-11.73-.55-.61-.99-1.38-2.15-1.21-1.1,1.43-2.2,2.97-3.47,4.46-1.1,1.27-.99,2.31.11,3.58,2.31,2.92,4.57,5.95,7.11,9.2M255.08,21.97c1.21,2.15,2.48,4.24,4.46,6.06,3.08-3.36,5.62-6.83,7.11-11.07,1.32-3.75.28-5.95-3.64-6.88-2.42-.55-4.9-.44-7.27.55-1.98.83-2.97,2.2-2.86,4.46.11,2.42.83,4.52,2.2,6.88M247.47,22.47c-.55,5.73.33,11.02,4.68,15.59,1.49-1.87,2.75-3.47,4.02-5.12.44-.55.55-1.1.06-1.71-3.03-3.64-5.34-7.77-7.22-12.17-1.21.77-1.05,1.98-1.54,3.41Z"/>
  <path class="cls-1" d="M200.71,201.92c-2.53-.61-4.85-1.27-6.88-2.53-3.19-1.87-4.35-4.74-3.58-8.37.88-4.13,3.19-7.55,5.34-11.07,4.08-6.61,8.21-13.22,12.34-19.83.88-1.38,1.21-2.81,1.21-4.41-.06-5.4-.06-10.8,0-16.25,0-1.65-.44-2.64-2.15-3.3-3.03-1.1-3.97-3.14-3.41-6.33.44-2.48,2.42-4.08,5.4-4.13,5.78-.06,11.51-.11,17.29-.39,5.4-.33,7.93,2.48,6.88,6.94-.39,1.65-1.38,2.86-2.81,3.53-1.38.66-1.71,1.65-1.71,3.08.06,5.95.06,11.9,0,17.9,0,1.16.28,2.15.83,3.14,4.96,8.65,9.91,17.35,14.82,26.05,1.05,1.82,1.98,3.69,2.59,5.73,1.05,3.69-.77,7.77-4.3,9.42-2.97,1.38-6.11,1.93-9.31,1.98-10.74.11-21.54.11-32.55-1.16M242.68,193.82c.11-1.38-.5-2.53-1.1-3.64-1.93-3.64-4.02-7.22-5.89-10.85-.99-1.93-2.26-2.7-4.52-2.64-8.98.11-17.96.06-26.93-.06-.94,0-1.54.17-2.04.94-2.7,4.13-5.34,8.32-7.27,12.94-.99,2.48-.11,4.3,2.04,5.56,1.32.83,2.86,1.16,4.41,1.38,10.74,1.43,21.54,1.05,32.39.99,1.71,0,3.47-.28,5.12-.72,1.87-.39,3.47-1.32,3.8-3.91M224.51,148.77c0-3.97.06-7.88-.06-11.84-.06-2.26.28-3.97,2.81-4.57.77-.17,1.54-.66,1.43-1.71-2.53-1.27-19.22-.94-20.65.44.28.94,1.05,1.27,1.87,1.32,2.92.22,3.8,1.93,3.75,4.68-.11,5.95,0,11.9.06,17.9.06,2.64-.5,5.07-1.93,7.33-2.09,3.19-3.97,6.55-5.95,9.8h25.12c-.61-1.21-.83-1.93-1.21-2.53-4.3-6.17-6.22-12.83-5.23-20.82Z"/>
  <path class="cls-1" d="M97.44,26.77c1.65-2.26,2.48-4.68,3.19-7.16.44-1.54,1.21-3.14,3.19-2.53,2.2.66,1.49,2.42.94,3.91-1.32,3.47-2.04,7.33-5.12,9.86-.94.77-.5,1.71-.28,2.53.88,2.97.22,5.78-.88,8.54-1.05,2.53-2.31,5.01-3.8,7.33-10.69,16.69-22.47,32.61-34.75,48.14-1.6,2.04-3.53,3.69-5.67,5.18-3.75,2.53-7.82,2.7-11.02.33-3.14-2.26-4.19-6.28-2.81-10.69,1.16-3.53,3.36-6.5,5.34-9.58,10.52-16.25,21.54-32.11,34.64-46.43,3.69-4.08,7.88-7.16,13.66-7.27,1.38-.11,2.31-1.1,3.36-2.15M86.59,52.6c-2.7-2.42-5.78-4.35-8.98-6.44-2.42,2.92-4.74,5.62-6.94,8.43-6.39,8.15-12.23,16.69-18.01,25.28-.66.99-2.2,2.26-.5,3.53,2.75,2.09,5.62,3.97,8.48,6,7.16-8.81,13.6-17.68,19.88-26.71,2.09-3.19,4.52-6.22,6.06-10.08M84.11,44.78c1.98,1.1,3.53,2.86,5.89,3.69,2.26-3.58,4.74-6.94,5.07-11.18.33-3.69-1.43-4.96-4.85-3.36-3.91,1.82-6.44,5.18-9.36,8.48,1.16.88,2.04,1.49,3.25,2.37M47.7,87.68c-1.32,2.26-2.97,4.46-3.41,7.16-.61,3.64,2.04,6.5,5.18,5.29,3.47-1.32,6.11-3.8,8.1-7.16-2.86-2.09-5.56-4.02-8.21-5.89-.61-.44-1.1-.17-1.65.61Z"/>
  <path class="cls-1" d="M320.34,88.73c-.33,4.46-2.2,7.93-4.85,11.13-9.25,11.18-19.28,21.65-29.08,32.28-3.47,3.75-7.33,7.22-11.18,10.58-8.54,7.38-20.49,5.62-26.33-3.97-3.86-6.33-2.42-12.67,1.43-18.34,4.9-7.22,11.24-13.27,17.18-19.66,6.88-7.38,13.82-14.71,20.71-22.09,1.87-2.04,3.8-3.97,6-5.67,9.64-7.55,24.07-1.76,25.83,10.35.28,1.71.83,3.41.28,5.4M259.43,142.21c5.45,1.76,10.08.11,14.16-3.58,1.93-1.71,3.69-3.58,5.51-5.34,11.84-11.79,23.08-24.12,33.71-36.96,2.31-2.75,3.3-6.06,3.08-9.75-.5-8.15-8.04-14.27-15.26-12.12-3.3.94-5.67,3.3-7.99,5.67-5.89,6.17-11.68,12.45-17.57,18.62-6.88,7.22-13.99,14.32-20.1,22.2-6.44,8.32-4.85,16.14,4.46,21.26Z"/>
  <path class="cls-1" d="M268.9,490.37c-11.02-10.91-8.59-21.98.22-31.73,5.18-5.67,11.57-9.86,19.55-10.85,5.23-.66,9.8.77,13.22,4.57,4.52,5.07,7.6,10.85,7.33,18.12-.5,12.01-12.45,24.18-24.46,24.62-5.84.28-11.18-.77-15.86-4.74M266.2,478.41c.88,3.75,3.53,5.56,7.05,6.5,7.22,1.87,12.5-1.71,18.34-6.39-6.44-5.89-12.67-11.51-19-17.29-4.3,4.3-7.66,9.58-6.39,17.18M282.28,463.49c3.47,3.53,6.94,7.05,10.3,10.69,1.32,1.43,2.09,1.21,3.3-.06,2.64-2.81,4.02-6.17,4.57-9.8.94-6.44-1.1-10.3-6.55-11.79-6.11-1.71-11.35.39-16.08,4.24-1.05.83-.55,1.6.17,2.31,1.32,1.38,2.64,2.75,4.3,4.41M292.75,483.43c-4.79,3.41-9.86,6.33-16.03,6.5,14.93,5.12,30.02-10.74,27.93-23.24-2.04,7.33-6.22,12.39-11.9,16.74Z"/>
  <path class="cls-1" d="M278.37,170.69c-3.19-5.01-.94-9.53,4.74-9.69,4.79-.11,9.53-.06,14.32,0,2.37.06,4.41.88,5.29,3.19.88,2.42.44,4.85-1.49,6.55-1.32,1.16-1.49,2.37-1.49,3.86,0,13.93-.06,27.87-.11,41.81,0,2.75-.22,5.51-1.27,8.1-1.82,4.52-5.67,6.83-10.41,6.22-4.02-.5-8.15-4.74-8.26-9.14-.17-7.22-.17-14.49.22-21.7.33-6.94.22-13.93.33-20.87,0-1.27-.06-2.59.22-3.86.44-1.98-.06-3.41-2.09-4.46M287.9,226.48c3.08.72,5.29-.28,6.33-3.14.94-2.48,1.27-5.18,1.27-7.82v-24.23c0-1.54.28-3.08-.33-4.85h-8.7c-1.49,0-2.15.66-2.15,2.15.06,10.63-.88,21.26-.61,31.89.11,2.86,1.38,4.74,4.19,6M284.82,172.56c0,2.37.06,4.74,0,7.16-.06,1.65.66,2.26,2.31,2.2,1.93-.06,3.86-.11,5.78.06,2.31.17,2.53-.83,2.53-2.92.11-4.24-1.93-9.2,3.14-12.17.06-.06,0-.33-.06-.99-5.34-1.1-10.91-.83-16.36-.39-1.43.11-1.27,1.76.17,2.26,2.09.77,2.75,2.2,2.48,4.79Z"/>
  <path class="cls-1" d="M6.61,96.61c0-.83.06-1.49.17-2.09.28-1.43-.28-2.09-1.71-2.04h-1.1c-1.82.06-3.86.06-3.97-2.31-.11-2.31,2.04-2.7,3.75-2.64,2.81.06,3.47-1.32,3.19-3.75-.06-.55,0-1.1.06-1.65.17-1.27.61-2.42,2.04-2.53,1.54-.11,2.7,1.05,2.53,2.31-.72,4.85,1.6,6,5.84,5.62,1.16-.11,2.48.5,2.37,2.09-.06,1.32-.94,2.15-2.26,2.37-.11,0-.17,0-.28.06-1.65.44-3.75-.28-5.07.88-1.38,1.21-.44,3.3-.77,5.01-.28,1.49-.99,2.7-2.64,2.59-2.26-.28-1.65-2.31-2.15-3.91Z"/>
  <path class="cls-1" d="M10.14,286.9c.11-1.49.06-2.81.22-4.08.22-1.54,1.1-2.53,2.75-2.42,1.54.17,1.82,1.27,1.82,2.59v1.38c.06,3.14-.77,3.97,3.69,3.86.77,0,1.6.22,2.37.5.94.28,1.54.99,1.54,2.04-.06,1.05-.77,1.65-1.71,1.93-.61.22-1.27.28-1.87.28-4.74-.06-3.97.22-4.02,4.3,0,.66,0,1.27-.06,1.93-.22,1.27-.94,1.93-2.2,1.98-1.38.06-2.31-.77-2.2-1.93.5-4.68-.88-7.27-6.11-6.44-.94.17-1.49-.94-1.65-1.93-.17-.94.39-1.54,1.1-2.04,1.05-.66,2.26-.61,3.47-.66,1.05,0,2.31.39,2.86-1.27Z"/>
  <path class="cls-1" d="M223.13,100.3c-1.98-4.35-1.76-7.16.66-9.53,2.31-2.26,6.22-2.97,8.92-1.71,2.59,1.21,4.19,3.8,3.91,6.66-.33,3.41-1.76,6.17-5.18,7.44-2.97,1.16-5.56.28-8.32-2.86M231.17,98.53c1.65-2.75,1.49-4.74-.55-5.56-1.54-.61-2.86-.17-3.91,1.05-1.27,1.38-.72,2.75.11,3.97,1.05,1.54,2.48,1.82,4.35.55Z"/>
  <path class="cls-1" d="M254.52,233.42c-1.05.44-1.93,1.1-2.7.99-3.19-.44-3.58,1.54-3.75,3.97-.11,1.71.39,4.35-2.2,4.24-2.7-.11-2.15-2.75-2.04-4.57.17-2.42-.33-3.91-3.25-3.53-1.49.17-2.86-.22-2.92-2.04-.06-1.93,1.32-2.26,2.81-2.09,2.48.28,3.58-.66,3.58-3.14,0-.88.22-1.82.44-2.7.28-1.21,1.05-1.93,2.37-1.82,1.27.11,1.65.99,1.71,2.09.06.44.11.94,0,1.38-.39,2.59.33,3.91,3.3,3.75,1.82-.11,3.8.61,2.64,3.47Z"/>
  <path class="cls-1" d="M296.83,420.8c-.06-.88-.22-1.54-.17-2.15.33-2.75-.61-4.02-3.53-3.47-.61.11-1.27,0-1.87-.22-1.1-.28-1.76-.99-1.6-2.2.11-1.05.83-1.6,1.87-1.71.66-.06,1.27-.06,1.93-.11,2.31-.06,3.69-.94,3.19-3.53-.06-.44,0-.94,0-1.38-.06-1.54.33-2.86,2.15-2.86s1.87,1.43,2.04,2.75c.06.72.06,1.49,0,2.2-.17,1.76.61,2.53,2.37,2.42.88-.06,1.82.11,2.7.33,1.05.22,2.04.66,1.82,1.98-.22,1.1-1.1,1.54-2.2,1.82-1.54.33-3.64-.88-4.46,1.05-.55,1.32-.22,3.08-.22,4.63,0,1.27-.22,2.48-1.65,2.75-1.49.28-2.15-.72-2.37-2.31Z"/>
  <path class="cls-1" d="M215.58,258.65c1.21,5.95-2.53,10.13-7.49,8.76-2.75-.83-4.41-2.97-4.46-5.89-.06-3.25,1.54-5.56,4.52-6.44,2.81-.88,5.4.33,7.44,3.58M207.93,260.3c-.22,1.1-.28,2.26.83,2.92.77.44,1.6.33,2.31-.22.72-.61.99-1.43.72-2.2-.77-2.09-2.15-1.93-3.86-.5Z"/>
  <path class="cls-1" d="M219.66,109.33c3.08,2.53,3.53,5.62,1.38,8.54-1.87,2.53-4.74,3.19-7.27,1.76-2.59-1.49-3.75-5.29-2.37-7.93,1.38-2.75,4.52-3.75,8.26-2.37M217.07,112.91c-1.27-.17-2.2.22-1.98,1.71.17.88.88,1.49,1.82,1.1,1.27-.61,1.32-1.6.17-2.81Z"/>
  <path class="cls-1" d="M182.43,227.31c.44,4.52.61,8.81.55,13.16,0,1.38-.11,2.75-1.87,2.81-1.71.06-2.26-1.27-2.37-2.81-.17-4.41-.44-8.76-.55-13.16-.06-1.38-.55-3.25,1.71-3.41,2.09-.11,2.53,1.43,2.53,3.41Z"/>
  <path class="cls-1" d="M113.25,233.31c.22-2.64.39-5.01.72-7.38.22-1.38.61-2.92,2.48-2.59,1.76.33,1.87,1.71,1.71,3.19-.39,4.46-.39,8.98-1.27,13.38-.28,1.32-.66,2.42-2.15,2.31-1.6-.11-2.15-1.32-2.04-2.7.17-1.98.39-3.97.55-6.22Z"/>
  <path class="cls-1" d="M88.13,122.55c1.43,1.38,1.32,2.48-.11,3.53-1.16.88-2.31,1.76-3.53,2.64-.72.55-1.43.77-2.26.17s-1.1-1.43-.83-2.42c.5-1.71,4.57-4.19,6.72-3.91Z"/>
  <path class="cls-1" d="M197.85,266.8c-.44,2.26-1.54,3.69-3.8,2.97-1.71-.55-2.75-1.87-2.31-3.8.44-1.82,1.71-2.81,3.69-2.48,1.71.28,2.37,1.43,2.42,3.3Z"/>
  <path class="cls-1" d="M86.26,120.18c-1.43-1.05-2.7-1.93-3.86-2.92-.88-.77-.99-1.76-.33-2.7.66-.94,1.6-1.1,2.64-.5,1.1.66,2.15,1.32,3.19,2.04.99.66,1.54,1.54,1.1,2.81-.44,1.16-1.32,1.71-2.75,1.27Z"/>
  <path class="cls-1" d="M94.68,131.75c-.5,1.32-1.16,2.2-2.48,1.93-1.38-.28-1.87-1.43-1.87-2.7,0-1.38.06-2.7.22-4.08.11-.88.77-1.49,1.65-1.54,1.05-.06,1.76.61,1.93,1.54.33,1.54.39,3.08.55,4.85Z"/>
  <path class="cls-1" d="M230.4,377.23c2.48-.11,3.64,1.16,3.53,3.3-.06,1.49-.77,2.86-2.64,2.97-1.54.11-2.64-.66-3.14-2.09-.66-2.04.11-3.41,2.26-4.19Z"/>
  <path class="cls-1" d="M99.26,118.42c-1.27,1.16-2.42,2.37-3.86.77-1.21-1.38-.17-2.53.83-3.53.77-.77,1.54-1.54,2.31-2.31.88-.83,1.93-1.27,2.92-.22.94.94.77,2.04,0,2.97-.61.83-1.38,1.49-2.2,2.31Z"/>
  <path class="cls-1" d="M301.45,333.94c.94-1.32,2.04-1.93,3.41-1.49,1.1.33,1.82,1.16,1.98,2.37.17,1.43-.17,2.75-1.43,3.58-.88.61-1.93.61-2.81.06-1.6-1.05-1.87-2.59-1.16-4.52Z"/>
  <path class="cls-1" d="M92.76,107.13c2.26,2.31,1.6,4.85.83,7.22-.5,1.43-1.87,1.65-3.03.44-.77-.83-.66-6.22.06-7.11.55-.66,1.21-.77,2.15-.55Z"/>
  <path class="cls-1" d="M156.81,341.49c.39.66.72,1.1.77,1.65.11,1.43.28,2.97-1.49,3.69-1.32.55-2.53.33-3.41-.83-.94-1.16-1.1-2.53-.28-3.8.88-1.38,2.2-1.76,3.8-1.16.17.06.28.22.61.44Z"/>
  <path class="cls-1" d="M12.12,405.6c2.86.77,3.8,2.64,2.42,4.52-.83,1.1-1.93,1.82-3.3,1.54s-1.87-1.38-1.93-2.64c-.06-1.87.83-2.97,2.81-3.41Z"/>
  <path class="cls-1" d="M102.67,126.68c-2.15,1.21-6-.28-6.55-2.37-.33-1.16-.06-2.26,1.32-2.53,2.04-.5,5.4,2.53,5.23,4.9Z"/>
  <path class="cls-1" d="M4.14,223.18c-.33-.22-.5-.33-.61-.5-1.16-1.43-1.49-2.97-.22-4.46.83-.99,2.04-1.32,3.19-.61,1.27.77,2.04,1.87,1.54,3.41-.61,1.71-1.71,2.81-3.91,2.15Z"/>
  <path class="cls-1" d="M105.65,76.78c1.05-.66,1.93-.72,2.75-.22,1.65.99,2.26,2.42,1.38,4.13-.83,1.6-2.26,2.2-3.86,1.05-1.93-1.38-2.09-3.03-.28-4.96Z"/>
  <path class="cls-1" d="M304.92,32.6c2.37-.61,3.64.33,3.86,2.42.11,1.21-.39,2.37-1.76,2.75-1.16.33-2.31.17-2.92-.94-.83-1.49-.88-2.97.83-4.24Z"/>
  <path class="cls-1" d="M185.35,431.49c-.11.33-.11.39-.11.5-.44,2.15,1.1,5.01-1.43,6.33-2.75,1.38-5.95.83-8.92.22-2.15-.44-2.42-2.42-2.09-4.19.44-2.7-.55-3.91-3.3-3.91-2.81.06-4.24-1.27-3.97-4.24.06-.83-.22-1.65-.28-2.48-.22-3.75.83-5.23,4.52-5.34,2.42-.11,3.14-.88,3.08-3.25-.06-4.3.83-5.07,5.18-5.12h1.65c5.01.06,5.62.55,5.51,5.51-.06,2.2.83,2.75,2.86,2.92,4.63.28,4.9.66,4.9,5.29v1.93c.06,4.63-.33,5.01-4.9,5.12-.94-.06-1.93-.33-2.7.72M176.92,430.83c0,.66.06,1.27,0,1.93-.06,1.38.5,2.04,1.93,1.98,1.32,0,1.98-.44,2.15-1.87q.66-5.62,6.33-6.33h.28c1.32-.06,1.65-.88,1.65-2.04s-.33-1.98-1.65-2.04c-1.21-.06-2.37-.06-3.58-.17-1.98-.11-3.03-1.16-2.97-3.14,0-.94-.06-1.82,0-2.75.06-1.38-.33-2.26-1.98-2.26-1.76-.06-2.09.83-2.15,2.37-.17,5.18-.22,5.18-5.29,5.89-.83.11-1.71.17-1.87,1.21-.11.83-.28,1.71.33,2.37.77.83,1.93.55,2.86.5,2.7-.17,4.13.99,3.97,4.35Z"/>
  <path class="cls-1" d="M170.14,459.3h-10.19c-1.54,0-3.14-.28-3.19-2.2-.06-2.2,1.71-1.98,3.14-1.98,11.9.06,23.79.11,35.75.17.55,0,1.1,0,1.65.11,1.32.28,2.64.77,2.53,2.37-.11,1.6-1.38,1.98-2.81,2.04-5.01.06-10.08-.11-15.09-.39-3.8-.22-7.66-.11-11.79-.11Z"/>
  <path class="cls-1" d="M165.19,448.29c-2.37-.11-4.52.22-6.55-.44-1.05-.33-1.87-.88-1.71-2.09.17-1.16.99-1.71,2.15-1.76,1.27,0,2.59.06,3.86.06h33.54c1.54.06,3.47-.17,3.53,2.04.06,2.2-1.82,2.15-3.41,2.15-7.33,0-14.65.06-21.98.06-3.08.06-6.11,0-9.42,0Z"/>
  <path class="cls-1" d="M175.1,470.76c-5.4-.11-10.52-.28-15.64-.39-1.49-.06-2.97-.39-2.97-2.09,0-1.82,1.6-2.04,3.03-1.98,8.76.11,17.57.28,26.33.44,1.6,0,2.81.66,2.81,2.31-.06,1.65-1.43,1.87-2.81,1.82-3.47-.06-7-.06-10.74-.11Z"/>
  <path class="cls-1" d="M74.09,215.8c-1.93-3.19-1.71-6.17.55-8.81,2.04-2.31,4.68-2.97,7.71-2.15,3.36.94,4.9,2.75,5.18,6.5.22,2.97-1.05,5.34-3.69,6.83-2.7,1.54-5.89,1.32-8.21-.61-.5-.44-.94-1.05-1.54-1.76M76.84,212.82c1.87,2.86,4.24,3.47,5.95,1.54,1.16-1.32,1.21-2.86.44-4.35-.77-1.54-2.31-1.71-3.8-1.38-1.93.44-2.97,1.65-2.59,4.19Z"/>
  <path class="cls-1" d="M150.43,153.28c-.83-2.04-1.65-3.91-2.31-5.84-.44-1.38-.11-2.64,1.32-3.19,1.38-.55,2.42.28,2.81,1.49,1.1,3.19,2.75,6.17,3.36,9.58.33,1.87-.17,3.3-1.71,4.24-1.82,1.1-3.91,1.71-6,.88-.88-.33-1.1-1.21-.94-2.09.17-1.05.94-1.65,1.93-1.71,2.7,0,2.53-1.38,1.54-3.36Z"/>
  <path class="cls-1" d="M154.28,169.15c-3.19.33-6.22.66-9.2.72-1.49.06-3.08-.55-3.08-2.42s1.49-2.04,2.97-2.04c2.59,0,5.12-.06,7.71,0,2.75.06,3.25,1.16,1.6,3.75Z"/>
  <path class="cls-1" d="M157.7,141.17c1.05-1.27,2.2-1.43,3.25-.72,1.71,1.1,1.05,2.92.99,4.52,0,1.16-.66,2.15-1.87,2.37-1.49.28-2.53-.44-2.75-1.93-.11-1.32-.17-2.7.39-4.24Z"/>
  <path class="cls-1" d="M139.46,140.06c1.98,1.65,1.32,3.69.88,5.4-.33,1.32-1.82,1.98-3.08.94-1.6-1.27-1.21-3.08-.88-4.79.33-1.6,1.43-1.93,3.08-1.54Z"/>
  <path class="cls-1" d="M77.17,356.08c-.06,5.56-.88,6.33-6.06,6.33-6,0-5.4-.94-5.45,5.34,0,1.1.06,2.2-.11,3.3-.33,2.04-1.43,3.41-3.64,3.41-3.3.06-6.61,0-9.91-.06-2.26-.06-3.3-1.32-3.19-3.58.06-2.04-.06-4.02.06-6.06.11-2.09-.5-3.08-2.75-2.92-1.65.17-3.3-.06-4.96,0-2.15.06-3.3-.99-3.36-3.08-.06-3.47,0-7,0-10.47,0-1.98,1.16-2.75,2.86-3.03,1.93-.28,3.86-.06,5.73.17,2.04.28,3.14-.28,2.92-2.64-.17-1.93-.06-3.86,0-5.78.06-2.26.99-3.64,3.47-3.58,3.58.11,7.16-.28,10.69.39,1.87.33,2.75,1.21,2.64,3.14-.06,2.09,0,4.24-.06,6.33-.06,1.65.66,2.31,2.26,2.31,1.76-.06,3.47,0,5.23,0,2.31.06,3.53,1.27,3.53,3.64.11,2.15.11,4.35.11,6.83M67.42,349.75q-5.45,0-5.4-5.62v-.83q0-6.11-6.22-5.78c-1.6.11-2.37.61-2.26,2.31.06,2.09.06,4.24,0,6.33s-1.21,3.19-3.25,3.36c-.94.11-1.82.06-2.75.06-6.06,0-6.17.17-5.62,6.11.11,1.43.66,1.98,2.04,1.93,1.76-.06,3.47-.06,5.23,0,2.7.11,3.75,1.27,3.8,3.97v2.75q0,6.44,6.55,5.95c1.38-.11,2.04-.55,1.98-1.98-.06-2.04,0-4.02,0-6.06,0-3.25.88-4.08,4.02-4.13,1.38,0,2.75-.11,4.13,0,2.53.28,3.41-.72,3.36-3.25-.11-6.06.44-5.07-5.62-5.12Z"/>
  <path class="cls-1" d="M214.92,349.86c-3.53.39-5.45-.55-6.44-3.03-.94-2.31-.39-4.3,1.38-5.95,1.87-1.71,4.85-1.93,6.83-.5,2.04,1.49,2.92,3.47,2.26,5.95-.5,2.04-1.93,2.97-4.02,3.53M214.76,344.24c-.77-.94-1.6-1.21-2.37-.11-.44.72-.33,1.49.5,1.76,1.21.39,1.98-.06,1.87-1.65Z"/>
  <path class="cls-1" d="M199.56,338.29c-1.21.55-2.15.5-2.92-.39-.83-.88-.99-1.98-.44-3.03s1.54-1.65,2.75-1.21c1.16.39,1.71,1.32,1.65,2.53,0,.77-.28,1.43-1.05,2.09Z"/>
  <path class="cls-1" d="M140.24,31.61c0-6.83,0-6.88,6.39-8.65,7.38-2.04,14.49-4.74,20.99-8.7,3.47-2.15,6.44-2.31,10.08.06,6.39,4.19,13.77,6.44,21.21,8.15,5.01,1.16,5.12,1.16,5.01,6.22-.28,12.56-2.04,24.79-8.04,36.13-4.85,9.14-12.17,15.42-21.54,19.61-1.71.77-3.3.77-5.01,0-16.41-7.27-26.82-19.06-28.64-37.51-.5-5.01-.55-10.02-.44-15.31M182.37,22.08c-2.97-1.27-5.89-2.59-8.59-4.3-.99-.61-1.82-.66-2.81-.17-7.82,4.13-15.86,7.6-24.4,9.86-1.1.33-2.04.88-2.04,2.26-.06,7.44-.5,14.87,1.32,22.14,3.41,13.99,12.72,22.75,25.56,28.26.99.44,1.76.17,2.59-.28,3.75-1.93,7.38-4.13,10.47-7.05,7.77-7.49,11.68-16.96,13.66-27.32,1.16-6.06,1.43-12.12,1.49-18.29-5.95-1.21-11.46-2.92-17.24-5.12Z"/>
  <path class="cls-1" d="M228.25,191.51c-2.75.28-4.79-.5-5.78-2.92-1.21-2.81-.22-5.34,2.37-6.39,2.81-1.1,5.89,0,7,2.53,1.16,2.81-.06,5.29-3.58,6.77Z"/>
  <path class="cls-1" d="M213.82,192.72c-1.82,1.6-3.58,2.15-5.67,1.05-1.93-1.05-2.53-2.7-2.37-4.85.11-2.04,1.38-3.14,3.03-3.86,1.98-.88,3.8-.39,5.18,1.27,1.71,2.04,1.54,4.13-.17,6.39Z"/>
  <path class="cls-1" d="M68.03,76.67c-1.71,2.37-3.53,1.87-5.34.55-1.98-1.43-3.25-3.41-1.93-5.62,3.3-5.51,7.16-10.58,11.35-15.42,1.38-1.6,4.13-1.38,5.73.11,1.82,1.71,1.98,3.58.55,5.62-3.36,4.9-6.77,9.75-10.35,14.76Z"/>
  <path class="cls-1" d="M281.95,94.79c2.75-.99,4.74.39,6.39,1.93,2.92,2.64,5.73,5.45,8.37,8.32,2.37,2.53,2.37,4.35.06,7.05-3.47,4.02-7.05,7.93-10.74,11.79-2.53,2.7-5.07,2.75-7.71.22-3.19-3.03-6.22-6.22-9.36-9.31-1.93-1.93-2.04-4.13-.33-6.17,4.08-4.85,8.37-9.53,13.33-13.82M292.31,106.41c-2.15-2.09-4.3-4.24-6.5-6.28-.77-.72-1.82-1.65-2.86-.61-3.86,3.75-7.77,7.44-11.18,11.95,3.08,3.08,6.06,6.06,9.03,8.98,1.16,1.16,2.15.61,3.03-.33,2.97-3.25,5.89-6.5,8.87-9.69,1.21-1.32,1.38-2.53-.39-4.02Z"/>
  <path class="cls-1" d="M294.57,84.43c.99-1.1,1.93-1.43,2.92-.33.55.61.55,1.32.17,2.04-.5.83-1.27,1.43-2.31.99-1.16-.44-1.27-1.43-.77-2.7Z"/>
  <path class="cls-1" d="M267.91,125.52c-.39-1.65.44-2.26,1.65-2.42.94-.11,1.6.39,1.87,1.27.22.83-.06,1.49-.72,1.93-1.1.88-2.04.61-2.81-.77Z"/>
  <path class="cls-1" d="M295.67,93.41c1.76.72,1.93,1.82.88,3.03-.77.88-1.87.99-2.53-.06-1.1-1.65.06-2.42,1.65-2.97Z"/>
  <path class="cls-1" d="M265.04,120.51c-1.43.61-2.15.06-2.48-1.1-.22-.88.11-1.65.94-2.09.72-.44,1.43-.33,1.98.28.99,1.05.77,1.98-.44,2.92Z"/>
  <path class="cls-1" d="M257.17,126.02c.72-1.16,1.49-1.65,2.59-.99.77.5,1.05,1.21.77,2.09-.28.88-.99,1.32-1.87,1.21-1.27-.17-1.71-.94-1.49-2.31Z"/>
  <path class="cls-1" d="M308.56,97.21c-.99.94-1.87,1.1-2.64.11-.55-.72-.5-1.54.06-2.2.5-.61,1.16-.88,1.93-.5,1.05.5,1.27,1.38.66,2.59Z"/>
  <path class="cls-1" d="M289.11,89.5c1.38.28,1.93.99,1.6,2.2-.22.77-.83,1.21-1.6,1.27-.83.06-1.38-.44-1.6-1.21-.33-1.21.28-1.93,1.6-2.26Z"/>
  <path class="cls-1" d="M300.52,91.81c-.72-1.16-.72-2.09.44-2.7.72-.39,1.43-.17,1.98.44.5.5.72,1.1.28,1.71-.66.88-1.43,1.49-2.7.55Z"/>
  <path class="cls-1" d="M299.8,102.72c-1.38-1.32-.88-2.26.39-2.86.99-.44,1.93,0,2.04,1.1.17,1.49-.77,2.09-2.42,1.76Z"/>
  <path class="cls-1" d="M262.51,130.26c.88-.99,1.65-.99,2.48-.28.5.5.66,1.1.28,1.71-.44.72-1.05,1.05-1.87.83-1.05-.28-1.43-.99-.88-2.26Z"/>
  <path class="cls-1" d="M277.33,129.76c-1.32.88-2.26.61-2.64-.72-.28-.88.22-1.76,1.21-1.71,1.38,0,2.15.72,1.43,2.42Z"/>
  <path class="cls-1" d="M268.4,135.99c-.55-1.6.06-2.26,1.49-2.09.83.11,1.32.77,1.1,1.6-.44,1.38-1.32,1.49-2.59.5Z"/>
  <path class="cls-1" d="M289.55,212.44c-1.65,0-2.48-.66-2.42-2.15,0-.99.55-1.71,1.6-1.87.99-.17,1.82.11,2.26,1.1.61,1.38,0,2.26-1.43,2.92Z"/>
  <path class="cls-1" d="M288.4,196.91c-.83-1.54-.28-2.48.94-3.14.94-.5,1.76-.11,2.42.66.61.83.66,1.76-.06,2.48-1.05,1.1-2.15,1.16-3.3,0Z"/>
  <path class="cls-1" d="M163.81,62.46c0-2.53.88-5.18-.28-7-1.38-2.15-4.24-.72-6.44-.94-2.42-.22-3.41-1.76-3.53-3.8-.17-2.53-.17-5.12,0-7.71.11-2.04,1.27-3.03,3.41-3.14,2.31-.11,5.18,1.1,6.88-.66,1.6-1.6.44-4.41.61-6.66.11-1.93.94-2.97,2.92-3.3,2.64-.44,5.29-.44,7.93-.22,2.09.17,3.3,1.38,3.25,3.64-.06,1.65.11,3.3,0,4.96-.17,1.98.88,2.59,2.64,2.64h.28c2.48,0,5.89-.99,7.05,1.54,1.49,3.25,1.49,7.22.5,10.8-.55,1.98-2.53,2.37-4.52,2.42q-5.89.06-6,5.95c-.06,4.79-.88,5.56-5.67,5.56-1.65,0-3.3.06-4.96,0-3.03-.06-3.8-.83-4.08-4.08M171.96,33.43c-2.59-.33-3.75.77-3.41,3.41.11.99.06,2.04,0,3.03-.17,3.53-1.1,4.46-4.74,4.57-1.27.06-2.59.06-3.86.06-1.6-.06-2.31.55-2.31,2.26-.06,3.36,0,3.53,3.41,3.58h3.3c2.37.11,3.75,1.21,3.75,3.75v4.41c0,3.47.11,3.41,3.53,3.58,3.69.17,2.75-2.37,2.75-4.3q.06-7.38,7.27-7.38h1.1c1.49.11,2.09-.55,2.2-2.04.28-3.25-.11-3.75-3.25-3.75h-3.3c-2.42-.06-3.75-1.27-3.8-3.75-.06-1.76-.11-3.47,0-5.23.17-1.76-.61-2.37-2.64-2.2Z"/>
</svg>